<svg width="184" height="144" fill="none" xmlns="http://www.w3.org/2000/svg"><path d="M77.05 0c-2.993.314-5.51 3.124-5.494 6.133v18.4H5.495C2.502 24.847-.016 27.658 0 30.667v106.311c0 3.211 2.922 6.133 6.133 6.133h171.734c3.211 0 6.133-2.922 6.133-6.133V30.667c0-3.212-2.922-6.133-6.133-6.134h-26.578c-3.24-.046-6.221 2.893-6.221 6.134 0 3.24 2.981 6.179 6.221 6.133h20.444v94.044H12.267V36.8h59.289v4.089H69.51a6.133 6.133 0 0 0-.639 0c-3.212.167-5.982 3.241-5.815 6.453.168 3.212 3.242 5.981 6.454 5.814h44.978c3.24.045 6.221-2.893 6.221-6.134 0-3.24-2.981-6.179-6.221-6.133h-2.045V36.8h18.4c3.241.046 6.221-2.893 6.221-6.133 0-3.241-2.98-6.18-6.221-6.134h-18.4v-18.4c0-3.211-2.922-6.133-6.133-6.133H77.05zm6.772 12.267h16.356v28.622H83.822V12.267zm-36.8 44.977c-8.96 0-16.355 7.396-16.355 16.356s7.395 16.356 16.355 16.356S63.378 82.56 63.378 73.6s-7.395-16.356-16.356-16.356zm0 12.267c2.331 0 4.09 1.758 4.09 4.089 0 2.33-1.759 4.089-4.09 4.089-2.33 0-4.089-1.758-4.089-4.089 0-2.33 1.758-4.089 4.09-4.089zm56.606 6.133c-3.212.167-5.982 3.241-5.815 6.453.167 3.212 3.242 5.982 6.454 5.814h57.244c3.24.046 6.221-2.893 6.221-6.133s-2.981-6.18-6.221-6.134h-57.883zM47.022 92c-16.584 0-30.666 12.577-30.666 28.622 0 3.212 2.922 6.133 6.133 6.134h49.067c3.21-.001 6.133-2.922 6.133-6.134C77.689 104.586 63.607 92 47.022 92zm56.606 2.044c-3.212.167-5.982 3.242-5.815 6.453.167 3.212 3.242 5.982 6.454 5.814h57.244c3.24.046 6.221-2.893 6.221-6.133s-2.981-6.18-6.221-6.134h-57.883zm-56.606 10.223c7.963 0 14.4 4.289 17.059 10.222H29.964c2.666-5.931 9.095-10.222 17.058-10.222zm56.606 8.177c-3.212.167-5.982 3.241-5.815 6.453.167 3.212 3.242 5.982 6.454 5.814h57.244c3.24.046 6.221-2.893 6.221-6.133 0-3.241-2.981-6.179-6.221-6.134h-57.883z" fill="#005931"/></svg>