<svg width="285" height="249" fill="none" xmlns="http://www.w3.org/2000/svg"><g clip-path="url(#a)" fill="#fff"><path d="M93.198 246.473a4.111 4.111 0 0 1-1.143 1.372 5.148 5.148 0 0 1-1.7.862c-.688.202-1.401.3-2.117.293a9.438 9.438 0 0 1-2.949-.416 5.756 5.756 0 0 1-2.353-1.496l1.834-1.836c.444.441.989.766 1.587.947.614.178 1.25.267 1.89.265a3.291 3.291 0 0 0 1.89-.464 1.522 1.522 0 0 0 .652-1.335 1.595 1.595 0 0 0-.454-1.221 1.586 1.586 0 0 0-.5-.322 3.841 3.841 0 0 0-.785-.189l-1.748-.246a4.881 4.881 0 0 1-2.835-1.202 3.788 3.788 0 0 1-1.04-2.839 4.564 4.564 0 0 1 .341-1.789 4.019 4.019 0 0 1 1.002-1.382c.46-.419 1-.74 1.587-.947a6.422 6.422 0 0 1 2.117-.331 8.1 8.1 0 0 1 2.627.388 5.672 5.672 0 0 1 2.06 1.306l-1.796 1.78a3.189 3.189 0 0 0-1.474-.833c-.49-.11-.99-.167-1.493-.171a2.321 2.321 0 0 0-1.691.54 1.74 1.74 0 0 0-.558 1.297c.001.187.036.374.104.549.073.186.186.354.331.492.165.15.353.271.557.359.25.109.515.182.785.218l1.842.284a6.802 6.802 0 0 1 1.654.426c.41.166.787.403 1.115.7.39.365.686.82.86 1.325.185.568.275 1.163.264 1.761a4.144 4.144 0 0 1-.463 1.855zm3.488 2.451v-14.575h2.834v14.575h-2.834zm15.203 0-5.745-8.916v8.916h-2.835v-14.575h2.523l5.755 8.896v-8.896h2.834v14.575h-2.532zm15.837-2.517a4.82 4.82 0 0 1-2.778 2.309 6.244 6.244 0 0 1-1.89.284 5.48 5.48 0 0 1-2.164-.407 5.38 5.38 0 0 1-1.748-1.183 4.401 4.401 0 0 1-.841-1.174 4.879 4.879 0 0 1-.416-1.334 9.615 9.615 0 0 1-.141-1.533V239.857a9.62 9.62 0 0 1 .141-1.524c.073-.466.213-.918.416-1.344.217-.433.501-.829.841-1.173a5.55 5.55 0 0 1 1.748-1.184 5.667 5.667 0 0 1 2.164-.407 6.275 6.275 0 0 1 1.89.284 4.844 4.844 0 0 1 2.769 2.31c.336.621.56 1.297.661 1.997h-2.835a3.303 3.303 0 0 0-.794-1.467 2.198 2.198 0 0 0-1.653-.587 2.656 2.656 0 0 0-1.049.199 2.333 2.333 0 0 0-1.106 1.05 2.79 2.79 0 0 0-.226.729 9.568 9.568 0 0 0-.114 1.145v3.465c.016.383.054.766.114 1.145.041.249.117.491.226.719.092.184.209.353.35.502.206.239.465.427.756.549.331.144.688.215 1.049.208a2.19 2.19 0 0 0 .89-.123c.284-.103.544-.264.763-.473a3.21 3.21 0 0 0 .794-1.467h2.835a5.906 5.906 0 0 1-.652 1.997zm3.515 2.517v-14.575h9.553v2.536h-6.718v3.407h5.774v2.528h-5.727v3.53h6.671v2.574h-9.553zm21.233 0v-11.717l-2.958 2.574v-2.839l2.958-2.575h2.664v14.557h-2.664zm16.139-8.272c-.236.634-.52 1.278-.841 1.94l-3.071 6.332h-2.835l2.996-6a2.098 2.098 0 0 1-.539.151 5.363 5.363 0 0 1-.538 0 3.63 3.63 0 0 1-2.646-1.145 4.15 4.15 0 0 1-.86-1.344 4.746 4.746 0 0 1-.321-1.818 5.098 5.098 0 0 1 .34-1.892 4.108 4.108 0 0 1 .945-1.43c.41-.392.9-.692 1.436-.88a4.983 4.983 0 0 1 1.776-.312 5.174 5.174 0 0 1 1.786.303 4.017 4.017 0 0 1 1.437.861c.414.395.736.877.945 1.41a4.87 4.87 0 0 1 .349 1.893 5.423 5.423 0 0 1-.359 1.931zm-2.835-3.483a1.763 1.763 0 0 0-1.36-.549 1.72 1.72 0 0 0-1.323.549 2.184 2.184 0 0 0-.529 1.571c-.028.561.15 1.114.5 1.552a1.741 1.741 0 0 0 1.352.568c.248.008.495-.037.725-.131.229-.095.436-.237.607-.418a2.637 2.637 0 0 0 0-3.142h.028zm14.307 9.408a3.797 3.797 0 0 1-1.002 1.354c-.43.368-.932.642-1.474.804a5.726 5.726 0 0 1-1.777.265 5.783 5.783 0 0 1-1.719-.246 4.237 4.237 0 0 1-1.465-.757 3.793 3.793 0 0 1-1.03-1.335 4.61 4.61 0 0 1-.406-1.949h2.655c.007.293.071.582.189.851.097.228.242.431.425.597.184.153.396.269.624.34.238.076.487.115.737.114a1.887 1.887 0 0 0 1.852-1.235 1.89 1.89 0 0 0 .113-.781 1.885 1.885 0 0 0-.562-1.471 1.892 1.892 0 0 0-1.479-.536h-.387v-2.3h.378a1.75 1.75 0 0 0 1.408-.52 2 2 0 0 0 .425-1.297 1.778 1.778 0 0 0-.529-1.391 1.82 1.82 0 0 0-1.247-.464 1.776 1.776 0 0 0-1.248.454 1.739 1.739 0 0 0-.538 1.297h-2.656c.006-.6.135-1.193.378-1.741a4 4 0 0 1 .945-1.297 4.212 4.212 0 0 1 1.399-.824 5.158 5.158 0 0 1 1.72-.283 4.918 4.918 0 0 1 1.776.312 4.114 4.114 0 0 1 1.417.852c.403.368.725.816.945 1.315a4.25 4.25 0 0 1 .322 1.685 3.317 3.317 0 0 1-.482 1.893 3.39 3.39 0 0 1-1.2 1.07c.529.286.983.695 1.323 1.192.399.629.594 1.366.557 2.111a4.614 4.614 0 0 1-.387 1.921zm11.565-.057a3.934 3.934 0 0 1-1.001 1.363c-.43.375-.931.659-1.474.833a5.591 5.591 0 0 1-1.796.284 5.65 5.65 0 0 1-1.805-.284 4.196 4.196 0 0 1-1.474-.833 3.934 3.934 0 0 1-1.001-1.363 4.396 4.396 0 0 1-.359-1.893c-.007-.401.051-.8.17-1.183a3.47 3.47 0 0 1 1.02-1.628c.193-.179.398-.343.614-.492a3.495 3.495 0 0 1-.566-.464 4.115 4.115 0 0 1-.53-.662 3.823 3.823 0 0 1-.387-.833 3.341 3.341 0 0 1-.151-1.06 4.04 4.04 0 0 1 .349-1.723c.222-.496.543-.941.945-1.306a4.527 4.527 0 0 1 1.418-.833 5.343 5.343 0 0 1 3.439 0c.515.187.989.469 1.399.833a3.91 3.91 0 0 1 1.313 3.029 3.413 3.413 0 0 1-.538 1.893c-.15.24-.328.463-.53.662a5.372 5.372 0 0 1-.557.464c.219.149.428.313.624.492.224.203.424.432.595.682.199.29.352.609.453.946.119.383.177.782.171 1.183a4.562 4.562 0 0 1-.341 1.893zm-2.834-3.341a2.02 2.02 0 0 0-2.835 0 2.007 2.007 0 0 0 1.417 3.424 2.006 2.006 0 0 0 1.851-1.238 2.015 2.015 0 0 0-.433-2.186zm-.095-6.029a1.679 1.679 0 0 0-1.285-.53 1.722 1.722 0 0 0-1.295.53 1.84 1.84 0 0 0 .272 2.834c.303.202.659.309 1.023.308a1.75 1.75 0 0 0 1.285-.52 1.897 1.897 0 0 0 0-2.622zM18.086 114.524C8.107 114.524 0 122.399 0 132.091v12.001c0 7.998 5.736 15.75 16.215 21.769a33.473 33.473 0 0 1 9.1 7.345 12.447 12.447 0 0 1 3.364 8.111v11.765a10.423 10.423 0 0 1-2.528 6.672 10.392 10.392 0 0 1-6.222 3.474c-.61.104-1.226.154-1.843.152a10.385 10.385 0 0 1-7.444-2.935 10.414 10.414 0 0 1-3.158-7.363V182.15H0v10.932c0 9.692 8.107 17.576 18.086 17.576.576 0 1.162 0 1.73-.085a17.764 17.764 0 0 0 11.55-5.579 17.82 17.82 0 0 0 4.796-11.912v-11.793a19.743 19.743 0 0 0-4.98-12.598 38.88 38.88 0 0 0-11.216-9.086 34.476 34.476 0 0 1-8.986-7.278c-2.24-2.66-3.487-5.452-3.487-8.235v-12.001a10.425 10.425 0 0 1 3.158-7.363 10.385 10.385 0 0 1 7.444-2.935 10.391 10.391 0 0 1 9.75 6.302c.542 1.263.828 2.621.843 3.996v10.061h7.484v-10.061c-.01-9.692-8.117-17.567-18.086-17.567zm208.13 88.524H52.038v7.572h174.178v-7.572zm-167.63-80.394c.514 1.524.767 3.124.746 4.733v11.111H76.03v7.487H59.294v27.136c0 3.123.747 5.877 2.363 7.751a8.221 8.221 0 0 0 6.236 2.87 8.214 8.214 0 0 0 6.237-2.87c1.625-1.893 2.372-4.628 2.372-7.751v-7.572h7.483v7.572a19.66 19.66 0 0 1-3.997 12.493 15.836 15.836 0 0 1-12.095 5.623 15.817 15.817 0 0 1-12.095-5.623 19.708 19.708 0 0 1-3.987-12.493v-45.725c0-2.839-.87-4.732-5.235-4.732v-7.496h37.523v7.496l-25.513-.01zm54.806 68.469a18.082 18.082 0 0 1-12.786-5.309 18.14 18.14 0 0 1-5.3-12.807v-41.74c0-4.787 1.898-9.378 5.278-12.763a18.006 18.006 0 0 1 12.741-5.286c4.78 0 9.363 1.902 12.742 5.286a18.062 18.062 0 0 1 5.278 12.763v41.74a18.111 18.111 0 0 1-5.245 12.769 18.053 18.053 0 0 1-12.708 5.347zm0-70.466a10.595 10.595 0 0 0-7.497 3.105 10.614 10.614 0 0 0-3.106 7.505v41.74a10.578 10.578 0 0 0 2.974 7.673 10.537 10.537 0 0 0 17.398-3.535c.511-1.318.752-2.725.71-4.138v-41.74a10.595 10.595 0 0 0-3.054-7.47 10.555 10.555 0 0 0-7.425-3.14zm48.531 70.21a18.078 18.078 0 0 1-12.783-5.305 18.14 18.14 0 0 1-5.303-12.801v-57.735h7.484v57.735a10.616 10.616 0 0 0 6.467 10.098 10.598 10.598 0 0 0 8.26 0 10.603 10.603 0 0 0 5.754-5.938 10.63 10.63 0 0 0 .713-4.16v-57.735h7.484v57.735a18.126 18.126 0 0 1-5.297 12.8 18.068 18.068 0 0 1-12.779 5.306zm30.55-1.571v-74.261h18.076a18.094 18.094 0 0 1 16.738 11.169 18.149 18.149 0 0 1 1.386 6.937v37.992a18.145 18.145 0 0 1-5.297 12.851 18.073 18.073 0 0 1-12.827 5.312h-18.076zm7.474-66.727v59.155h10.602a10.663 10.663 0 0 0 7.444-3.132 10.695 10.695 0 0 0 3.12-7.459v-37.992a10.7 10.7 0 0 0-3.127-7.487 10.67 10.67 0 0 0-7.475-3.132l-10.564.047zm57.48 80.555h7.853v7.496h-23.198v-7.496h7.861v-80.451h-7.861v-7.496h23.198v7.496h-7.853v80.451zm18.331-87.417h-2.173v6.834h-1.2v-6.834h-2.135v-1.088h5.556l-.048 1.088zm9.242 6.834h-1.209v-5.291l-1.815 3.899h-.888l-1.89-3.861v5.291h-1.209v-7.96h1.209l2.306 4.931 2.258-4.931h1.21l.028 7.922zM254.347 1.495V44.59c0 2.816-1.117 5.517-3.106 7.509a10.593 10.593 0 0 1-14.993 0 10.626 10.626 0 0 1-3.106-7.51V1.496h-7.559V44.59a10.628 10.628 0 0 1-3.213 7.303 10.592 10.592 0 0 1-14.768 0 10.629 10.629 0 0 1-3.214-7.303V1.495h-7.484v43.122c0 4.089-3.845 6.91-7.162 8.518-4.233 2.064-9.015 2.603-13.409.663-3.524-1.552-14.608-11.84-17.008-14.84-2.249-2.746-3.497-5.614-3.497-8.52V18.287a10.743 10.743 0 0 1 3.001-7.511 10.707 10.707 0 0 1 7.384-3.279 10.576 10.576 0 0 1 7.604 3.05 10.622 10.622 0 0 1 3.159 7.57v12.701h7.484V18.343A18.124 18.124 0 0 0 173.4 1.536a18.065 18.065 0 0 0-19.735 3.803 18.121 18.121 0 0 0-5.377 12.777v12.36c0 5.178 3.458 11.52 8.57 17.037h-21.185V19.374c0-4.741-1.881-9.289-5.228-12.642-3.347-3.353-7.888-5.237-12.622-5.237s-9.274 1.884-12.621 5.237a17.892 17.892 0 0 0-5.228 12.642v34.897h28.347v23.17c0 2.779-1.102 5.444-3.063 7.409a10.45 10.45 0 0 1-14.793 0 10.485 10.485 0 0 1-3.064-7.409v-6.408h-7.427v6.408c0 4.742 1.88 9.29 5.228 12.642a17.833 17.833 0 0 0 25.243 0 17.896 17.896 0 0 0 5.228-12.642V55.104s20.269-.133 23.16-.095c1.72 0 3.582-.265 5.245.322 1.663.587 3.279 2.395 4.885 3.417a24.198 24.198 0 0 0 12.898 3.947 26.438 26.438 0 0 0 18.086-8.045 18.089 18.089 0 0 0 6.266 5.775 18.056 18.056 0 0 0 23.15-4.876 18.078 18.078 0 0 0 9.085 6.352 18.049 18.049 0 0 0 11.079-.15 18.078 18.078 0 0 0 8.91-6.598 18.127 18.127 0 0 0 3.393-10.564V1.495h-7.483zM107.363 46.87V19.374c0-2.778 1.102-5.443 3.064-7.408a10.45 10.45 0 0 1 14.793 0 10.485 10.485 0 0 1 3.064 7.408V46.87h-20.921zM69.471 1.495h-16.12v.067h-8.94v7.496c4.366 0 5.245 1.893 5.245 4.732v3.247h7.484V13.8a14.151 14.151 0 0 0-.728-4.676h4.45v-.066h3.506v-.066H69.5c2.8.027 5.478 1.155 7.456 3.142a10.704 10.704 0 0 1 3.117 7.477v24.485c-.02 2.81-1.143 5.5-3.127 7.488a10.669 10.669 0 0 1-7.475 3.132l-18.086-.085v7.572h18.086a18.071 18.071 0 0 0 12.78-5.306 18.131 18.131 0 0 0 5.297-12.8V19.61A18.14 18.14 0 0 0 82.25 6.808a18.08 18.08 0 0 0-12.78-5.313zM87.53 88.43H51.385V96H87.53V88.43zm175.861 0H148.354V96H263.39V88.43zM18.086 0C8.107 0 0 7.875 0 17.567v12.001c0 7.998 5.736 15.75 16.215 21.77a33.62 33.62 0 0 1 9.1 7.344c2.249 2.669 3.364 5.338 3.364 8.12v11.756a10.421 10.421 0 0 1-2.528 6.672 10.39 10.39 0 0 1-6.222 3.474c-.61.103-1.226.154-1.843.152a10.378 10.378 0 0 1-7.444-2.935 10.411 10.411 0 0 1-3.158-7.363V67.626H0v10.932c0 9.692 8.107 17.566 18.086 17.566.576 0 1.162 0 1.73-.075a17.763 17.763 0 0 0 11.55-5.58 17.819 17.819 0 0 0 4.796-11.911V66.765a19.723 19.723 0 0 0-4.98-12.598 38.88 38.88 0 0 0-11.216-9.086 34.471 34.471 0 0 1-8.986-7.279c-2.24-2.66-3.487-5.451-3.487-8.234V17.567a10.426 10.426 0 0 1 3.155-7.36 10.392 10.392 0 0 1 7.438-2.938 10.379 10.379 0 0 1 7.438 2.938 10.412 10.412 0 0 1 3.155 7.36v10.06h7.483v-10.06C36.162 7.875 28.055 0 18.086 0z"/></g><defs><clipPath id="a"><path fill="#fff" d="M0 0h285v249H0z"/></clipPath></defs></svg>