<svg width="189" height="252" fill="none" xmlns="http://www.w3.org/2000/svg"><path d="M183 0H6C2.7 0 0 2.7 0 6v235.5c0 2.1 1.2 4.2 3 5.4 1.8.9 4.2.9 6-.3l38.7-24.9 42 16.5c1.5.6 3 .6 4.5 0l29.7-12.3 56.7 25.5c.9.3 1.5.6 2.4.6 1.2 0 2.4-.3 3.3-.9 1.8-1.2 2.7-3 2.7-5.1V6c0-3.3-2.4-6-6-6zm-6 236.7-50.7-22.8c-.9-.3-1.5-.6-2.4-.6-.9 0-1.5 0-2.4.6l-30 12.3-42.6-16.8c-1.8-.6-3.9-.6-5.4.6l-31.8 20.7V12H177v224.7zM40.2 37.5c0-3.3 2.7-6 6-6h96.6c3.3 0 6 2.7 6 6s-2.7 6-6 6H46.2c-3.3 0-6-2.7-6-6zm0 42.3c0-3.3 2.7-6 6-6h96.6c3.3 0 6 2.7 6 6s-2.7 6-6 6H46.2c-3.3 0-6-2.7-6-6zm0 42.3c0-3.3 2.7-6 6-6h96.6c3.3 0 6 2.7 6 6s-2.7 6-6 6H46.2c-3.3 0-6-2.7-6-6zM97.5 180c0 3.3-2.7 6-6 6h-45c-3.3 0-6-2.7-6-6s2.7-6 6-6h45c3.3 0 6 2.7 6 6z" fill="#005931"/></svg>