<svg width="38" height="38" viewBox="0 0 38 38" fill="none" xmlns="http://www.w3.org/2000/svg">
<path fill-rule="evenodd" clip-rule="evenodd" d="M19 1C9.05888 1 1 9.05888 1 19V19C1 28.9411 9.05888 37 19 37V37C28.9411 37 37 28.9411 37 19V19C37 9.05888 28.9411 1 19 1V1Z" stroke="#005931" stroke-width="1.5"/>
<path d="M28.6554 12.1445C28.2501 11.7391 27.5929 11.7391 27.1875 12.1445L14.7519 24.5801L9.9719 19.8001C9.56657 19.3947 8.9094 19.3948 8.50398 19.8001C8.09861 20.2055 8.09861 20.8626 8.50398 21.268L14.018 26.7819C14.4232 27.1872 15.0808 27.187 15.4859 26.7819L28.6554 13.6124C29.0608 13.207 29.0608 12.5498 28.6554 12.1445Z" fill="#005931"/>
</svg>
