<svg width="285" height="249" fill="none" xmlns="http://www.w3.org/2000/svg"><g clip-path="url(#clip0)" fill="#fff"><path d="M93.1985 246.473c-.2762.536-.6665 1.004-1.1434 1.372-.5085.391-1.0854.683-1.7009.862-.6872.202-1.4005.3-2.1166.293-.9985.018-1.9936-.122-2.9482-.416-.8948-.298-1.7027-.812-2.3529-1.496l1.8332-1.836c.444.441.9891.766 1.5875.947.614.178 1.2505.267 1.8898.265.6623.039 1.3211-.122 1.8899-.464.2133-.148.3852-.349.4994-.583.1141-.233.1666-.492.1526-.752.0147-.224-.0181-.448-.0962-.659-.0782-.21-.2-.402-.3574-.562-.1449-.138-.3149-.247-.5008-.322-.2539-.09-.5169-.154-.7843-.189l-1.7481-.246c-1.0496-.084-2.0439-.506-2.8348-1.202-.3588-.376-.6362-.823-.8151-1.311-.1788-.489-.2552-1.009-.2243-1.528-.0078-.614.1079-1.222.3402-1.789.2313-.527.5728-.999 1.0016-1.382.4608-.419 1.0005-.74 1.5875-.947.682-.228 1.3975-.34 2.1166-.331.891-.016 1.7786.115 2.6269.388.7731.281 1.476.726 2.06 1.306l-1.7954 1.78c-.4076-.406-.9169-.693-1.4741-.833-.4902-.11-.9907-.167-1.493-.171-.3035-.025-.6091.009-.8994.101-.2902.093-.5594.242-.792.439-.1777.165-.319.366-.415.59-.096.223-.1445.464-.1425.707.0008.187.036.374.1039.549.0731.186.186.354.3308.492.1648.15.3531.271.5575.359.2501.109.5141.182.7843.218l1.8426.284c.5668.072 1.1223.215 1.6536.426.4097.166.7871.403 1.115.7.3909.365.6863.82.8599 1.325.1853.568.2747 1.163.2646 1.761-.0076.646-.1662 1.281-.463 1.855zM96.6855 248.924v-14.575h2.8348v14.575h-2.8348zM111.889 248.924l-5.745-8.916v8.916h-2.835v-14.575h2.523l5.755 8.896v-8.896h2.834v14.575h-2.532zM127.726 246.407c-.592 1.101-1.588 1.929-2.778 2.309-.612.191-1.249.287-1.89.284-.741.012-1.477-.126-2.164-.407-.655-.275-1.249-.677-1.748-1.183-.343-.342-.627-.739-.841-1.174-.202-.422-.342-.872-.416-1.334-.088-.507-.135-1.019-.141-1.533v-1.751-1.761c.006-.511.054-1.02.141-1.524.073-.466.213-.918.416-1.344.217-.433.501-.829.841-1.173.502-.503 1.095-.905 1.748-1.184.688-.276 1.423-.414 2.164-.407.641-.002 1.278.093 1.89.284 1.185.384 2.177 1.212 2.769 2.31.336.621.56 1.297.661 1.997h-2.835c-.135-.549-.408-1.054-.794-1.467-.22-.206-.481-.365-.765-.466-.285-.101-.587-.142-.888-.121-.36-.005-.716.062-1.049.199-.476.216-.865.586-1.106 1.05-.108.232-.185.477-.226.729-.061.379-.099.762-.114 1.145v3.465c.016.383.054.766.114 1.145.041.249.117.491.226.719.092.184.209.353.35.502.206.239.465.427.756.549.331.144.688.215 1.049.208.302.021.605-.021.89-.123.284-.103.544-.264.763-.473.39-.411.663-.917.794-1.467h2.835c-.096.699-.317 1.375-.652 1.997zM131.241 248.924v-14.575h9.553v2.536h-6.718v3.407h5.774v2.528h-5.727v3.53h6.671v2.574h-9.553zM152.474 248.924v-11.717l-2.958 2.574v-2.839l2.958-2.575h2.664v14.557h-2.664zM168.613 240.652c-.236.634-.52 1.278-.841 1.94l-3.071 6.332h-2.835l2.996-6c-.172.074-.353.125-.539.151-.179.009-.359.009-.538 0-.491-.004-.975-.104-1.427-.293-.461-.197-.876-.487-1.219-.852-.371-.388-.663-.845-.86-1.344-.225-.579-.334-1.197-.321-1.818-.008-.646.108-1.289.34-1.892.211-.538.533-1.025.945-1.43.41-.392.9-.692 1.436-.88.568-.211 1.17-.317 1.776-.312.609-.005 1.213.098 1.786.303.534.183 1.024.476 1.437.861.414.395.736.877.945 1.41.241.602.36 1.245.349 1.893-.001.66-.123 1.315-.359 1.931zm-2.835-3.483c-.174-.184-.385-.329-.62-.424-.235-.094-.487-.137-.74-.125-.247-.009-.493.035-.722.13-.228.095-.433.238-.601.419-.376.434-.566.998-.529 1.571-.028.561.15 1.114.5 1.552.171.188.38.336.613.434.234.098.486.144.739.134.248.008.495-.037.725-.131.229-.095.436-.237.607-.418.337-.454.52-1.005.52-1.571 0-.566-.183-1.117-.52-1.571h.028zM180.085 246.577c-.229.521-.571.984-1.002 1.354-.43.368-.932.642-1.474.804-.575.181-1.174.271-1.777.265-.582.005-1.162-.078-1.719-.246-.533-.154-1.031-.411-1.465-.757-.439-.362-.791-.818-1.03-1.335-.276-.612-.414-1.278-.406-1.949h2.655c.007.293.071.582.189.851.097.228.242.431.425.597.184.153.396.269.624.34.238.076.487.115.737.114.265.011.53-.034.776-.132.247-.098.47-.247.656-.437.185-.19.328-.417.42-.666.092-.25.131-.516.113-.781.018-.271-.024-.543-.121-.797s-.247-.484-.441-.674c-.194-.19-.426-.337-.681-.429-.255-.093-.527-.129-.798-.107h-.387v-2.3h.378c.258.023.519-.012.762-.102.244-.09.464-.233.646-.418.289-.369.44-.828.425-1.297.018-.256-.02-.514-.111-.754-.092-.24-.234-.458-.418-.637-.343-.307-.788-.472-1.247-.464-.459-.016-.906.147-1.248.454-.175.167-.313.368-.406.592-.093.223-.138.463-.132.705h-2.656c.006-.6.135-1.193.378-1.741.224-.492.546-.933.945-1.297.409-.363.884-.643 1.399-.824.553-.191 1.134-.287 1.72-.283.606-.006 1.208.099 1.776.312.525.185 1.007.475 1.417.852.403.368.725.816.945 1.315.221.534.33 1.107.322 1.685.033.665-.135 1.325-.482 1.893-.309.448-.72.815-1.2 1.07.529.286.983.695 1.323 1.192.399.629.594 1.366.557 2.111.01.661-.122 1.316-.387 1.921zM191.65 246.52c-.231.522-.573.987-1.001 1.363-.43.375-.931.659-1.474.833-.579.192-1.186.288-1.796.284-.613.004-1.222-.092-1.805-.284-.542-.174-1.044-.458-1.474-.833-.428-.376-.77-.841-1.001-1.363-.258-.597-.381-1.243-.359-1.893-.007-.401.051-.8.17-1.183.099-.335.245-.653.434-.946.165-.252.362-.481.586-.682.193-.179.398-.343.614-.492-.204-.134-.394-.29-.566-.464-.199-.202-.377-.424-.53-.662-.162-.261-.292-.541-.387-.833-.107-.343-.158-.701-.151-1.06-.012-.593.108-1.181.349-1.723.222-.496.543-.941.945-1.306.418-.362.898-.644 1.418-.833 1.115-.379 2.324-.379 3.439 0 .515.187.989.469 1.399.833.426.378.765.845.991 1.369.227.523.337 1.089.322 1.66.007.359-.044.717-.151 1.06-.091.294-.221.574-.387.833-.15.24-.328.463-.53.662-.175.167-.361.322-.557.464.219.149.428.313.624.492.224.203.424.432.595.682.199.29.352.609.453.946.119.383.177.782.171 1.183.022.648-.094 1.294-.341 1.893zm-2.834-3.341c-.379-.372-.888-.581-1.418-.581-.53 0-1.039.209-1.417.581-.28.281-.471.638-.548 1.027-.077.39-.037.793.115 1.159.151.367.408.68.737.901.33.22.717.337 1.113.337s.783-.117 1.113-.337c.329-.221.586-.534.738-.901.151-.366.191-.769.114-1.159-.077-.389-.268-.746-.547-1.027zm-.095-6.029c-.164-.175-.364-.313-.585-.404-.222-.092-.46-.135-.7-.126-.241-.007-.481.036-.704.127-.223.091-.424.229-.591.403-.259.256-.435.584-.508.941-.072.358-.037.728.102 1.066.139.337.375.625.678.827.303.202.659.309 1.023.308.238.006.475-.037.696-.127.221-.09.422-.223.589-.393.338-.353.527-.823.527-1.311 0-.489-.189-.959-.527-1.311zM18.0859 114.524C8.10749 114.524 0 122.399 0 132.091v12.001c0 7.998 5.73572 15.75 16.215 21.769 3.44 1.895 6.5202 4.381 9.0996 7.345 2.069 2.204 3.2649 5.088 3.364 8.111v11.765c-.0315 2.453-.9266 4.815-2.5274 6.672-1.6008 1.856-3.8046 3.086-6.2226 3.474-.6088.104-1.2253.154-1.8427.152-1.3729.027-2.7376-.218-4.0153-.722-1.2778-.503-2.4432-1.256-3.429-2.213-.98583-.958-1.77245-2.101-2.31444-3.365-.54199-1.264-.82862-2.623-.84332-3.998V182.15H0v10.932c0 9.692 8.10749 17.576 18.0859 17.576.5764 0 1.1623 0 1.7293-.085 4.4091-.355 8.5276-2.345 11.5506-5.579 3.023-3.235 4.7333-7.482 4.7966-11.912v-11.793c-.1228-4.657-1.8868-9.119-4.9797-12.598-3.14-3.703-6.9443-6.785-11.2164-9.086-3.3831-1.902-6.4212-4.363-8.9862-7.278-2.23951-2.66-3.48681-5.452-3.48681-8.235v-12.001c.0147-1.376.30133-2.734.84332-3.998.54199-1.264 1.32861-2.408 2.31439-3.365.9858-.957 2.1513-1.71 3.429-2.214 1.2778-.503 2.6425-.749 4.0154-.721 1.3721-.026 2.7358.22 4.0125.724 1.2766.504 2.4409 1.257 3.4257 2.214.9848.958 1.7706 2.101 2.312 3.364.5414 1.263.8277 2.621.8424 3.996v10.061h7.4839v-10.061c-.0095-9.692-8.117-17.567-18.086-17.567zM226.216 203.048H52.0376v7.572H226.216v-7.572zM58.5857 122.654c.5147 1.524.7671 3.124.7465 4.733v11.111h16.6969v7.487H59.2944v27.136c0 3.123.7465 5.877 2.3623 7.751.7718.9 1.7287 1.623 2.8051 2.118 1.0764.495 2.2469.752 3.4315.752 1.1845 0 2.3551-.257 3.4315-.752s2.0332-1.218 2.805-2.118c1.6253-1.893 2.3718-4.628 2.3718-7.751v-7.572h7.4838v7.572c.1368 4.5-1.2743 8.911-3.997 12.493-1.4867 1.762-3.339 3.178-5.428 4.149-2.0889.971-4.3642 1.474-6.6671 1.474-2.303 0-4.5782-.503-6.6672-1.474-2.0889-.971-3.9413-2.387-5.4279-4.149-2.7159-3.585-4.1232-7.995-3.9876-12.493v-45.725c0-2.839-.8693-4.732-5.2349-4.732v-7.496h37.5231v7.496l-25.5131-.01zM113.392 191.123c-4.796-.003-9.395-1.912-12.786-5.309-3.3916-3.397-5.2978-8.003-5.3003-12.807v-41.74c0-4.787 1.8985-9.378 5.2783-12.763 3.379-3.384 7.962-5.286 12.741-5.286 4.78 0 9.363 1.902 12.742 5.286 3.38 3.385 5.278 7.976 5.278 12.763v41.74c.005 4.783-1.88 9.374-5.245 12.769-3.364 3.394-7.933 5.317-12.708 5.347zm0-70.466c-1.392-.001-2.771.273-4.057.805-1.286.533-2.455 1.314-3.44 2.3-.984.985-1.765 2.155-2.298 3.443-.533 1.288-.808 2.668-.808 4.062v41.74c-.042 1.413.2 2.82.71 4.138.511 1.318 1.281 2.52 2.264 3.535.983 1.014 2.159 1.821 3.459 2.371 1.3.551 2.697.835 4.108.835 1.412 0 2.809-.284 4.109-.835 1.299-.55 2.476-1.357 3.459-2.371.983-1.015 1.752-2.217 2.263-3.535.511-1.318.752-2.725.71-4.138v-41.74c.007-2.796-1.091-5.482-3.054-7.47-1.964-1.989-4.633-3.117-7.425-3.14zM161.923 190.867c-4.794-.002-9.392-1.91-12.783-5.305-3.391-3.395-5.298-7.999-5.303-12.801v-57.735h7.484v57.735c-.043 1.421.2 2.835.714 4.16.513 1.325 1.287 2.533 2.275 3.553s2.171 1.831 3.478 2.385c1.307.553 2.711.839 4.13.839s2.824-.286 4.13-.839c1.307-.554 2.49-1.365 3.478-2.385.988-1.02 1.762-2.228 2.276-3.553.513-1.325.756-2.739.713-4.16v-57.735h7.484v57.735c-.002 4.801-1.907 9.405-5.297 12.8-3.389 3.395-7.986 5.304-12.779 5.306zM192.473 189.296v-74.261h18.076c2.377-.004 4.732.462 6.929 1.37 2.198.908 4.195 2.241 5.878 3.922 1.683 1.682 3.019 3.679 3.931 5.877.913 2.199 1.383 4.556 1.386 6.937v37.992c.005 2.386-.46 4.749-1.369 6.954-.909 2.206-2.244 4.21-3.928 5.897-1.684 1.687-3.683 3.025-5.885 3.937-2.201.911-4.56 1.379-6.942 1.375h-18.076zm7.474-66.727v59.155h10.602c2.795-.027 5.468-1.152 7.444-3.132 1.975-1.981 3.096-4.659 3.12-7.459v-37.992c-.019-2.81-1.143-5.5-3.127-7.487-1.984-1.987-4.669-3.112-7.475-3.132l-10.564.047zM257.427 203.124h7.853v7.496h-23.198v-7.496h7.861v-80.451h-7.861v-7.496h23.198v7.496h-7.853v80.451zM275.758 115.707h-2.173v6.834h-1.2v-6.834h-2.135v-1.088h5.556l-.048 1.088zM285 122.541h-1.209v-5.291l-1.815 3.899h-.888l-1.89-3.861v5.291h-1.209v-7.96h1.209l2.306 4.931 2.258-4.931h1.21l.028 7.922zM254.347 1.49541V44.5886c0 2.8165-1.117 5.5176-3.106 7.5092-1.988 1.9915-4.685 3.1104-7.496 3.1104-2.812 0-5.509-1.1189-7.497-3.1104-1.989-1.9916-3.106-4.6927-3.106-7.5092V1.49541h-7.559V44.5886c-.082 2.7604-1.235 5.3801-3.213 7.3034-1.979 1.9234-4.627 2.9992-7.384 2.9992-2.757 0-5.406-1.0758-7.384-2.9992-1.979-1.9233-3.131-4.543-3.214-7.3034V1.49541h-7.484V44.617c0 4.0888-3.845 6.9093-7.162 8.5184-4.233 2.0633-9.015 2.6028-13.409.6625-3.524-1.5522-14.608-11.8405-17.008-14.8408-2.249-2.7448-3.497-5.6126-3.497-8.5183V18.286c-.016-2.8 1.061-5.4953 3.001-7.5111 1.94-2.01584 4.59-3.19244 7.384-3.27881 1.406-.02262 2.803.23543 4.108.75909 1.306.52366 2.494 1.30246 3.496 2.29092 1.002.9885 1.797 2.167 2.339 3.4666.543 1.2996.821 2.6943.82 4.1029v12.7018h7.484V18.3428c.015-2.379-.438-4.7376-1.334-6.9412-.895-2.20364-2.214-4.20906-3.883-5.9018-1.669-1.69274-3.655-3.03964-5.843-3.96382-2.189-.924175-4.538-1.407519-6.913-1.422434-2.375-.0149155-4.73.43889-6.93 1.335504-2.2.89662-4.202 2.21848-5.892 3.89013-1.69 1.67164-3.034 3.66033-3.957 5.85252-.923 2.1922-1.405 4.5449-1.42 6.9239v12.361c0 5.1773 3.458 11.5187 8.57 17.0367h-21.185V19.3744c0-4.7418-1.881-9.2894-5.228-12.64235-3.347-3.35297-7.888-5.23664-12.622-5.23664s-9.274 1.88367-12.621 5.23664c-3.348 3.35295-5.2284 7.90055-5.2284 12.64235v34.8967h28.3474V77.441c0 2.7788-1.102 5.4438-3.063 7.4087-1.962 1.9649-4.623 3.0688-7.397 3.0688s-5.435-1.1039-7.396-3.0688c-1.962-1.9649-3.064-4.6299-3.064-7.4087v-6.4077h-7.4274v6.4077c0 4.7418 1.8804 9.2894 5.2284 12.6423 3.347 3.353 7.887 5.2367 12.621 5.2367 4.734 0 9.275-1.8837 12.622-5.2367 3.347-3.3529 5.228-7.9005 5.228-12.6423V55.104s20.269-.1325 23.16-.0946c1.72 0 3.582-.265 5.245.3218 1.663.5868 3.279 2.3946 4.885 3.4168 3.84 2.5119 8.312 3.8805 12.898 3.9468 6.841-.2375 13.323-3.1211 18.086-8.0451 1.6 2.3973 3.748 4.3772 6.266 5.7749 2.518 1.3976 5.333 2.1727 8.211 2.2607 2.877.0879 5.734-.5138 8.333-1.7551 2.598-1.2412 4.863-3.0862 6.606-5.3813 2.29 3.0178 5.468 5.2396 9.085 6.3522 3.618 1.1126 7.493 1.0599 11.079-.1507 3.586-1.2106 6.703-3.518 8.91-6.597 2.207-3.079 3.394-6.7742 3.393-10.5648V1.49541h-7.483zM107.363 46.8697V19.3744c0-2.7788 1.102-5.4438 3.064-7.4087 1.961-1.9649 4.622-3.06882 7.396-3.06882 2.775 0 5.435 1.10392 7.397 3.06882 1.962 1.9649 3.064 4.6299 3.064 7.4087v27.4953h-20.921zM69.4711 1.49545H53.3506v.06626h-8.939v7.49612c4.3656 0 5.2444 1.89297 5.2444 4.73237v3.2465h7.4838v-3.237c.0216-1.5884-.2244-3.1691-.7276-4.67562h4.4506v-.06625h3.5057v-.06625h5.131c2.8008.02724 5.4788 1.15572 7.4567 3.14222 1.9779 1.9864 3.0973 4.6718 3.117 7.4773v24.4854c-.0198 2.8104-1.1431 5.5-3.1271 7.4872-1.984 1.9873-4.6692 3.1125-7.475 3.1323l-18.0859-.0851v7.5718h18.0859c4.7934-.0025 9.3898-1.9109 12.7793-5.3059 3.3894-3.3951 5.2947-7.999 5.2972-12.8003V19.6111c-.0025-4.8022-1.9075-9.4071-5.2967-12.80359-3.3891-3.39652-7.9855-5.30704-12.7798-5.31206zM87.5288 88.4297H51.3853v7.5718h36.1435v-7.5718zM263.39 88.4297H148.354v7.5718H263.39v-7.5718zM18.0859 0C8.10749 0 0 7.87471 0 17.5667V29.568c0 7.9978 5.73572 15.7495 16.215 21.7691 3.4381 1.8972 6.5179 4.383 9.0996 7.3447 2.249 2.669 3.364 5.3381 3.364 8.1208v11.7552c-.0315 2.4527-.9266 4.8155-2.5274 6.6718-1.6008 1.8562-3.8046 3.0867-6.2226 3.4745-.6088.1033-1.2253.1539-1.8427.1514-1.3728.0276-2.7376-.2175-4.0153-.7213-1.2778-.5037-2.4432-1.2561-3.429-2.2136-.98583-.9575-1.77244-2.1011-2.31444-3.3649-.54199-1.2637-.82862-2.6225-.84332-3.9979V67.626H0v10.9318c0 9.692 8.10749 17.5667 18.0859 17.5667.5764 0 1.1623 0 1.7293-.0757 4.4091-.3552 8.5276-2.3444 11.5506-5.5789 3.023-3.2345 4.7333-7.4819 4.7966-11.9121V66.7647c-.1211-4.6568-1.8854-9.12-4.9797-12.5976-3.14-3.7033-6.9443-6.7851-11.2164-9.0863-3.383-1.9021-6.4212-4.3629-8.9862-7.2784-2.23951-2.6596-3.48681-5.4517-3.48681-8.2344V17.5667c.01472-1.3746.30104-2.7326.84244-3.9957.54141-1.2631 1.32717-2.4063 2.31197-3.3637.9848-.95736 2.1491-1.70992 3.4258-2.21424 1.2766-.50432 2.6403-.75042 4.0124-.72409 1.3721-.02633 2.7359.21977 4.0125.72409 1.2767.50432 2.441 1.25688 3.4258 2.21424.9848.9574 1.7705 2.1006 2.3119 3.3637.5415 1.2631.8278 2.6211.8425 3.9957v10.0611h7.4838V17.5667C36.1624 7.87471 28.0549 0 18.0859 0z"/></g><defs><clipPath id="clip0"><path fill="#fff" d="M0 0h285v249H0z"/></clipPath></defs></svg>