<svg width="189" height="252" viewBox="0 0 189 252" fill="none" xmlns="http://www.w3.org/2000/svg">
<path d="M183 0H6C2.7 0 0 2.7 0 6V241.5C0 243.6 1.2 245.7 3 246.9C4.8 247.8 7.2 247.8 9 246.6L47.7 221.7L89.7 238.2C91.2 238.8 92.7 238.8 94.2 238.2L123.9 225.9L180.6 251.4C181.5 251.7 182.1 252 183 252C184.2 252 185.4 251.7 186.3 251.1C188.1 249.9 189 248.1 189 246V6C189 2.7 186.6 0 183 0ZM177 236.7L126.3 213.9C125.4 213.6 124.8 213.3 123.9 213.3C123 213.3 122.4 213.3 121.5 213.9L91.5 226.2L48.9 209.4C47.1 208.8 45 208.8 43.5 210L11.7 230.7V12H177V236.7ZM40.2 37.5C40.2 34.2 42.9 31.5 46.2 31.5H142.8C146.1 31.5 148.8 34.2 148.8 37.5C148.8 40.8 146.1 43.5 142.8 43.5H46.2C42.9 43.5 40.2 40.8 40.2 37.5ZM40.2 79.8C40.2 76.5 42.9 73.8 46.2 73.8H142.8C146.1 73.8 148.8 76.5 148.8 79.8C148.8 83.1 146.1 85.8 142.8 85.8H46.2C42.9 85.8 40.2 83.1 40.2 79.8ZM40.2 122.1C40.2 118.8 42.9 116.1 46.2 116.1H142.8C146.1 116.1 148.8 118.8 148.8 122.1C148.8 125.4 146.1 128.1 142.8 128.1H46.2C42.9 128.1 40.2 125.4 40.2 122.1ZM97.5 180C97.5 183.3 94.8 186 91.5 186H46.5C43.2 186 40.5 183.3 40.5 180C40.5 176.7 43.2 174 46.5 174H91.5C94.8 174 97.5 176.7 97.5 180Z" fill="#005931"/>
</svg>
