<svg width="145" height="75" viewBox="0 0 145 75" fill="none" xmlns="http://www.w3.org/2000/svg">
<path d="M56.989 74.3178C56.989 74.6978 56.7726 74.8877 56.3346 74.8877C55.8967 74.8877 55.675 74.6978 55.675 74.3178V64.8619C55.675 64.4872 55.8967 64.2973 56.3346 64.2973C56.7726 64.2973 56.989 64.4872 56.989 64.8619V74.3178Z" fill="#005931"/>
<path d="M60.7354 68.7561C60.7353 68.9099 60.7688 69.0618 60.8335 69.2012C60.8982 69.3407 60.9926 69.4643 61.1101 69.5635C61.3747 69.7795 61.7079 69.8937 62.0494 69.8854C62.386 69.8937 62.7142 69.7793 62.9728 69.5635C63.0932 69.4658 63.1906 69.3429 63.2581 69.2033C63.3255 69.0638 63.3615 68.9111 63.3633 68.7561V66.5505C63.3645 66.3957 63.3299 66.2427 63.2622 66.1036C63.1944 65.9644 63.0954 65.8429 62.9728 65.7484C62.7142 65.5326 62.386 65.4182 62.0494 65.4265C61.7081 65.4196 61.3754 65.5336 61.1101 65.7484C60.9913 65.8453 60.8959 65.9677 60.8311 66.1066C60.7662 66.2455 60.7335 66.3972 60.7354 66.5505V68.7561ZM63.3738 70.7085C62.9654 70.9107 62.5156 71.0154 62.0599 71.0146C61.3779 71.0281 60.7142 70.7937 60.1919 70.355C59.9541 70.1655 59.7622 69.9247 59.6306 69.6506C59.499 69.3764 59.4311 69.0761 59.4321 68.772V66.5663C59.4307 66.2621 59.4984 65.9616 59.6301 65.6874C59.7617 65.4132 59.9538 65.1725 60.1919 64.9833C60.7142 64.5445 61.3779 64.3102 62.0599 64.3237C62.7401 64.3068 63.4023 64.5439 63.9173 64.9885C64.1586 65.1756 64.3536 65.4157 64.4872 65.6902C64.6208 65.9647 64.6894 66.2663 64.6877 66.5716V74.3389C64.6877 74.7189 64.4714 74.9088 64.0334 74.9088C63.5954 74.9088 63.3738 74.7189 63.3738 74.3389V70.7085Z" fill="#005931"/>
<path d="M68.7772 68.7614C68.7752 68.9145 68.8084 69.066 68.8742 69.2041C68.9401 69.3423 69.0369 69.4635 69.1572 69.5582C69.4208 69.7766 69.7542 69.8927 70.0964 69.8854C70.434 69.8937 70.7628 69.7772 71.0199 69.5582C71.1423 69.4648 71.2414 69.3442 71.3092 69.2059C71.3769 69.0676 71.4116 68.9154 71.4103 68.7614V64.8672C71.4103 64.4872 71.6214 64.2973 72.0594 64.2973C72.1688 64.293 72.2776 64.3158 72.3761 64.3636C72.4746 64.4115 72.5598 64.483 72.624 64.5717C72.6846 64.6584 72.7177 64.7614 72.719 64.8672V68.7614C72.7167 68.915 72.7504 69.0671 72.8172 69.2054C72.8841 69.3438 72.9824 69.4646 73.1042 69.5582C73.3662 69.7703 73.6931 69.886 74.0303 69.886C74.3674 69.886 74.6943 69.7703 74.9563 69.5582C75.0781 69.4646 75.1764 69.3438 75.2433 69.2054C75.3101 69.0671 75.3438 68.915 75.3415 68.7614V64.8672C75.3415 64.4872 75.5632 64.2973 75.9958 64.2973C76.4285 64.2973 76.6554 64.4872 76.6554 64.8672V68.7614C76.652 69.0653 76.5817 69.3647 76.4494 69.6383C76.3172 69.9119 76.1263 70.153 75.8903 70.3444C75.3662 70.7641 74.7148 70.9927 74.0434 70.9927C73.3721 70.9927 72.7207 70.7641 72.1966 70.3444L72.0805 70.2336C71.8226 70.4883 71.5156 70.688 71.1781 70.8204C70.8407 70.9528 70.4799 71.0153 70.1175 71.004C69.6606 71.0112 69.2086 70.9099 68.7984 70.7085V74.3073C68.7984 74.6872 68.582 74.8772 68.144 74.8772C67.7061 74.8772 67.4844 74.6872 67.4844 74.3073V64.8619C67.4844 64.4872 67.7061 64.2973 68.144 64.2973C68.582 64.2973 68.7984 64.4872 68.7984 64.8619L68.7772 68.7614Z" fill="#005931"/>
<path d="M81.9322 64.8461L83.9901 74.149C84.064 74.5183 83.8899 74.7347 83.4625 74.798C83.035 74.8613 82.7765 74.7136 82.7026 74.3442L81.2621 68.1124L79.8373 74.3442C79.7635 74.7136 79.5102 74.8719 79.0828 74.798C78.6553 74.7241 78.4654 74.5183 78.5551 74.149L80.613 64.8461V64.7775C80.6249 64.7206 80.6482 64.6667 80.6816 64.6192C80.7429 64.5251 80.831 64.4517 80.9345 64.4084C81.038 64.3652 81.1521 64.354 81.2621 64.3764C81.3686 64.3518 81.4802 64.361 81.5813 64.4026C81.6825 64.4442 81.7682 64.5162 81.8267 64.6086C81.8658 64.6594 81.8912 64.7193 81.9005 64.7827L81.9322 64.8461Z" fill="#005931"/>
<path d="M91.1771 64.6455C91.1624 64.8096 91.0868 64.9622 90.9652 65.0734C90.8436 65.1846 90.6849 65.2462 90.5201 65.2462C90.3554 65.2462 90.1966 65.1846 90.0751 65.0734C89.9535 64.9622 89.8779 64.8096 89.8632 64.6455V64.2234C89.8779 64.0593 89.9535 63.9067 90.0751 63.7955C90.1966 63.6844 90.3554 63.6227 90.5201 63.6227C90.6849 63.6227 90.8436 63.6844 90.9652 63.7955C91.0868 63.9067 91.1624 64.0593 91.1771 64.2234V64.6455ZM93.1559 69.0252V71.6636C93.153 71.8381 93.1853 72.0114 93.251 72.1731C93.3166 72.3348 93.4141 72.4816 93.5377 72.6047C93.6614 72.7279 93.8086 72.8248 93.9705 72.8898C94.1325 72.9547 94.3059 72.9864 94.4804 72.9828H94.5384V74.2914H94.454C94.0845 74.2991 93.718 74.2234 93.3818 74.0699C93.0456 73.9164 92.7484 73.6891 92.5121 73.405C92.2683 73.6884 91.9651 73.9148 91.6241 74.068C91.283 74.2212 90.9124 74.2975 90.5386 74.2914H88.5387C88.4527 74.3092 88.3636 74.3053 88.2795 74.2799C88.1955 74.2546 88.119 74.2086 88.0572 74.1462C87.9954 74.0839 87.9501 74.0071 87.9254 73.9228C87.9008 73.8385 87.8975 73.7494 87.9161 73.6635V73.6371C87.9029 73.5486 87.9105 73.4583 87.9384 73.3732C87.9663 73.2882 88.0136 73.2108 88.0766 73.1473C88.1396 73.0838 88.2166 73.0358 88.3014 73.0073C88.3862 72.9787 88.4765 72.9703 88.5651 72.9828H90.5386C90.712 72.9865 90.8843 72.9547 91.0449 72.8894C91.2055 72.824 91.351 72.7265 91.4726 72.6029C91.5966 72.4827 91.6944 72.3382 91.7598 72.1783C91.8252 72.0185 91.8568 71.8468 91.8525 71.6742V69.0358C91.8575 68.8623 91.8263 68.6896 91.7609 68.5288C91.6954 68.368 91.5973 68.2226 91.4726 68.1018C91.2221 67.8616 90.8884 67.7274 90.5412 67.7274C90.1941 67.7274 89.8604 67.8616 89.6099 68.1018C89.484 68.2219 89.3847 68.3671 89.3183 68.528C89.252 68.6889 89.2201 68.8619 89.2247 69.0358C89.2247 69.2093 89.1558 69.3758 89.033 69.4985C88.9103 69.6212 88.7439 69.6901 88.5704 69.6901C88.3968 69.6901 88.2304 69.6212 88.1077 69.4985C87.985 69.3758 87.9161 69.2093 87.9161 69.0358C87.8792 68.6689 87.9197 68.2984 88.0349 67.9482C88.15 67.5979 88.3373 67.2757 88.5847 67.0023C88.832 66.7289 89.1339 66.5103 89.4709 66.3608C89.8079 66.2112 90.1725 66.1339 90.5412 66.1339C90.9099 66.1339 91.2746 66.2112 91.6116 66.3608C91.9486 66.5103 92.2505 66.7289 92.4978 67.0023C92.7452 67.2757 92.9325 67.5979 93.0476 67.9482C93.1628 68.2984 93.2033 68.6689 93.1664 69.0358" fill="#005931"/>
<path d="M97.7836 64.6455C97.7688 64.8096 97.6933 64.9622 97.5717 65.0734C97.4501 65.1846 97.2913 65.2462 97.1266 65.2462C96.9619 65.2462 96.8031 65.1846 96.6815 65.0734C96.56 64.9622 96.4844 64.8096 96.4697 64.6455V64.2234C96.4844 64.0593 96.56 63.9067 96.6815 63.7955C96.8031 63.6844 96.9619 63.6227 97.1266 63.6227C97.2913 63.6227 97.4501 63.6844 97.5717 63.7955C97.6933 63.9067 97.7688 64.0593 97.7836 64.2234V64.6455ZM97.7836 71.6425C97.7785 71.8167 97.809 71.9901 97.8731 72.1521C97.9373 72.3141 98.0338 72.4613 98.1568 72.5847C98.2797 72.7082 98.4266 72.8053 98.5883 72.8701C98.75 72.9349 98.9233 72.9661 99.0975 72.9617H99.1608V74.2704H99.0975C98.7241 74.2782 98.3538 74.2027 98.0133 74.0493C97.6728 73.896 97.3708 73.6686 97.1293 73.3839C96.8842 73.6672 96.58 73.8934 96.2382 74.0465C95.8963 74.1997 95.525 74.2761 95.1505 74.2704H94.4962V72.9617H95.1505C95.324 72.9646 95.4964 72.9325 95.6574 72.8676C95.8184 72.8026 95.9647 72.706 96.0877 72.5835C96.2107 72.461 96.3079 72.3151 96.3735 72.1544C96.4391 71.9936 96.4718 71.8214 96.4697 71.6478V67.0517C96.4844 66.8877 96.56 66.735 96.6815 66.6239C96.8031 66.5127 96.9619 66.4511 97.1266 66.4511C97.2913 66.4511 97.4501 66.5127 97.5717 66.6239C97.6933 66.735 97.7688 66.8877 97.7836 67.0517V71.6425Z" fill="#005931"/>
<path d="M101.773 69.0252V71.6636C101.769 71.8371 101.801 72.0096 101.866 72.1706C101.93 72.3317 102.027 72.478 102.15 72.6007C102.272 72.7234 102.419 72.8201 102.58 72.8848C102.741 72.9496 102.913 72.9811 103.087 72.9775C103.435 72.9775 103.769 72.8391 104.016 72.5927C104.262 72.3463 104.401 72.0121 104.401 71.6636V69.0252C104.405 68.8509 104.372 68.6775 104.305 68.5166C104.238 68.3557 104.137 68.2107 104.01 68.0913C103.889 67.9699 103.745 67.8741 103.587 67.8097C103.428 67.7453 103.258 67.7137 103.087 67.7166C102.913 67.7139 102.741 67.7456 102.58 67.81C102.418 67.8743 102.272 67.9699 102.147 68.0913C102.025 68.2134 101.929 68.3592 101.864 68.5198C101.8 68.6803 101.769 68.8523 101.773 69.0252ZM105.709 69.0252V71.6636C105.715 72.0106 105.65 72.3551 105.519 72.6762C105.387 72.9974 105.192 73.2884 104.944 73.5316C104.703 73.7786 104.414 73.9735 104.094 74.1042C103.775 74.2349 103.432 74.2986 103.087 74.2914C102.713 74.2982 102.341 74.2228 102 74.0705C101.658 73.9183 101.353 73.6929 101.108 73.4102C100.873 73.6894 100.578 73.9128 100.246 74.0643C99.914 74.2158 99.5523 74.2916 99.1872 74.2862H99.1239V72.9775C99.2979 72.9804 99.4708 72.9483 99.6321 72.883C99.7935 72.8177 99.9401 72.7207 100.063 72.5976C100.188 72.4772 100.287 72.3319 100.352 72.171C100.418 72.0101 100.449 71.8372 100.443 71.6636V69.0252C100.435 68.6788 100.499 68.3344 100.631 68.0139C100.762 67.6933 100.959 67.4034 101.208 67.1625C101.578 66.7983 102.046 66.5511 102.556 66.4519C103.065 66.3526 103.592 66.4057 104.071 66.6045C104.551 66.8032 104.961 67.1389 105.25 67.5695C105.539 68.0001 105.696 68.5064 105.699 69.0252" fill="#005931"/>
<path d="M59.0997 25.7611V10.6485C59.145 9.15113 59.7717 7.73029 60.8469 6.68716C61.922 5.64403 63.3612 5.06063 64.8592 5.06063C66.3573 5.06063 67.7964 5.64403 68.8716 6.68716C69.9468 7.73029 70.5735 9.15113 70.6188 10.6485V25.7611H59.0997ZM140.024 0.823171V24.5053C140.047 25.2861 139.914 26.0637 139.631 26.7919C139.349 27.5202 138.923 28.1843 138.379 28.745C137.835 29.3056 137.184 29.7513 136.464 30.0556C135.745 30.36 134.972 30.5168 134.191 30.5168C133.409 30.5168 132.636 30.36 131.917 30.0556C131.197 29.7513 130.546 29.3056 130.002 28.745C129.458 28.1843 129.032 27.5202 128.75 26.7919C128.467 26.0637 128.334 25.2861 128.357 24.5053V0.823171H124.188V24.5053C124.192 26.0531 123.58 27.5389 122.488 28.6359C121.396 29.7328 119.913 30.351 118.366 30.3545C116.818 30.358 115.332 29.7465 114.235 28.6545C113.138 27.5625 112.52 26.0795 112.516 24.5316V0.823171H108.395V24.5211C108.395 26.7743 106.284 28.3203 104.453 29.2121C103.324 29.8118 102.077 30.1552 100.8 30.2182C99.5234 30.2811 98.2484 30.0619 97.0659 29.5762C95.1241 28.7214 89.0241 23.07 87.6733 21.4184C86.4385 19.9092 85.7526 18.3314 85.7526 16.7537V10.0258C85.7493 8.48516 86.3495 7.00447 87.4245 5.90084C88.4996 4.79721 89.964 4.15838 91.5042 4.12114C92.2788 4.10493 93.0489 4.24397 93.7689 4.53007C94.489 4.81616 95.1444 5.24351 95.6967 5.78693C96.249 6.33035 96.6869 6.97884 96.9846 7.69416C97.2822 8.40949 97.4337 9.17717 97.43 9.95196V16.9384H101.551V10.0786C101.589 8.753 101.362 7.4332 100.882 6.19668C100.403 4.96016 99.6816 3.83183 98.7604 2.87791C97.8391 1.92399 96.7366 1.1637 95.5176 0.641675C94.2985 0.119648 92.9874 -0.153602 91.6613 -0.162038C90.3352 -0.170473 89.0207 0.0860763 87.7951 0.592552C86.5695 1.09903 85.4574 1.84523 84.5241 2.78735C83.5908 3.72947 82.8551 4.84854 82.3602 6.07886C81.8652 7.30919 81.6211 8.62598 81.642 9.95196V16.7537C81.642 19.5979 83.5416 23.0858 86.3541 26.0988H74.6925V10.6485C74.633 8.08138 73.5714 5.63945 71.7348 3.84489C69.8982 2.05034 67.4323 1.04564 64.8645 1.04564C62.2967 1.04564 59.8308 2.05034 57.9942 3.84489C56.1576 5.63945 55.096 8.08138 55.0366 10.6485V29.8295H70.6241V42.5676C70.5788 44.0649 69.9521 45.4858 68.8769 46.5289C67.8017 47.5721 66.3626 48.1555 64.8645 48.1555C63.3665 48.1555 61.9273 47.5721 60.8521 46.5289C59.7769 45.4858 59.1503 44.0649 59.1049 42.5676V39.048H55.0366V42.5729C55.096 45.14 56.1576 47.5819 57.9942 49.3765C59.8308 51.171 62.2967 52.1757 64.8645 52.1757C67.4323 52.1757 69.8982 51.171 71.7348 49.3765C73.5714 47.5819 74.633 45.14 74.6925 42.5729V30.2886C74.6925 30.2886 85.8475 30.2147 87.4464 30.2358C88.3909 30.2358 89.4146 30.0933 90.3328 30.4099C91.2509 30.7265 92.1322 31.7291 93.0186 32.2885C95.1334 33.6691 97.5959 34.4228 100.121 34.4625C103.887 34.3328 107.455 32.7454 110.073 30.0353C110.954 31.354 112.136 32.4433 113.523 33.2123C114.91 33.9813 116.46 34.4079 118.045 34.4564C119.63 34.5049 121.204 34.174 122.635 33.4913C124.066 32.8085 125.313 31.7937 126.273 30.5313C127.534 32.189 129.283 33.4093 131.275 34.0201C133.266 34.6309 135.399 34.6015 137.373 33.936C139.347 33.2705 141.062 32.0025 142.277 30.3106C143.492 28.6187 144.145 26.5882 144.145 24.5053V0.823171H140.024Z" fill="#005931"/>
<path d="M38.2459 0.82317H29.3704V0.860107H24.4366V4.97598C26.8376 4.97598 27.3178 6.03133 27.3178 7.61435V9.40317H31.4389V7.58797C31.4532 6.71302 31.3175 5.84209 31.0379 5.01291H33.4916V4.97598H35.4228V4.94432H38.2459C39.7903 4.95537 41.2684 5.57379 42.3604 6.66588C43.4525 7.75797 44.071 9.236 44.082 10.7804V24.2361C44.0723 25.7815 43.4545 27.2608 42.3623 28.3541C41.27 29.4473 39.7912 30.0664 38.2459 30.0775L28.2887 30.0353V34.1934H38.2459C40.8858 34.192 43.4171 33.1423 45.2833 31.2751C47.1495 29.4079 48.1979 26.876 48.1979 24.2361V10.7804C48.1965 8.14093 47.1477 5.60987 45.2818 3.74298C43.4159 1.87609 40.8854 0.825965 38.2459 0.82317Z" fill="#005931"/>
<path d="M48.1873 48.6042H28.2887V52.7676H48.1873V48.6042Z" fill="#005931"/>
<path d="M145.005 48.6042H81.6736V52.7676H145.005V48.6042Z" fill="#005931"/>
<path d="M9.95724 0C4.46414 0 0 4.32694 0 9.65646V16.2524C0 20.6479 3.16605 24.9063 8.923 28.2412C10.8168 29.2661 12.514 30.6185 13.9359 32.2357C15.1707 33.7026 15.7881 35.1643 15.7881 36.6946V43.1586C15.7734 44.5062 15.2822 45.8051 14.4013 46.8251C13.5204 47.8451 12.3068 48.5202 10.9757 48.7308C10.6394 48.79 10.2987 48.82 9.95724 48.8205C9.20215 48.8324 8.45213 48.6953 7.75006 48.4171C7.04798 48.1389 6.40763 47.7251 5.86561 47.1992C5.32359 46.6734 4.89054 46.0459 4.59121 45.3525C4.29188 44.6592 4.13215 43.9137 4.12115 43.1586V37.1695H0V43.1586C0 48.4828 4.46414 52.8151 9.95724 52.8151C10.2744 52.8152 10.5914 52.7993 10.9071 52.7676C13.3347 52.5746 15.603 51.4827 17.268 49.7055C18.9329 47.9282 19.8748 45.5937 19.9092 43.1586V36.6946C19.8405 34.1353 18.8685 31.6829 17.1653 29.7715C15.4303 27.7471 13.3352 26.0618 10.9862 24.8008C9.12293 23.7601 7.45084 22.4092 6.04189 20.8062C4.80713 19.3129 4.12115 17.7827 4.12115 16.2524V9.65646C4.13215 8.90136 4.29188 8.15584 4.59121 7.46251C4.89054 6.76918 5.32359 6.14165 5.86561 5.61581C6.40763 5.08996 7.04798 4.67611 7.75006 4.39791C8.45213 4.11972 9.20215 3.98264 9.95724 3.9945C10.7119 3.98334 11.4613 4.12094 12.1628 4.39945C12.8643 4.67796 13.504 5.09192 14.0455 5.6177C14.5869 6.14348 15.0195 6.77077 15.3185 7.46374C15.6175 8.15672 15.7771 8.90181 15.7881 9.65646V15.1865H19.9092V9.65646C19.9092 4.32694 15.4451 0 9.95724 0Z" fill="#005931"/>
</svg>
