<svg width="23" height="22" viewBox="0 0 23 22" fill="none" xmlns="http://www.w3.org/2000/svg">
<path fill-rule="evenodd" clip-rule="evenodd" d="M11.5 22C5.42487 22 0.5 17.0751 0.5 11C0.5 4.92487 5.42487 0 11.5 0C17.5751 0 22.5 4.92487 22.5 11C22.5 17.0751 17.5751 22 11.5 22ZM11.5 20C16.4706 20 20.5 15.9706 20.5 11C20.5 6.02944 16.4706 2 11.5 2C6.52944 2 2.5 6.02944 2.5 11C2.5 15.9706 6.52944 20 11.5 20ZM14.7929 7.29289L9.5 12.5858L7.20711 10.2929L5.79289 11.7071L9.5 15.4142L16.2071 8.70711L14.7929 7.29289Z" fill="#014325"/>
</svg>
