<svg width="38" height="38" viewBox="0 0 38 38" fill="none" xmlns="http://www.w3.org/2000/svg">
<path fill-rule="evenodd" clip-rule="evenodd" d="M19 1C9.05888 1 1 9.05888 1 19V19C1 28.9411 9.05888 37 19 37V37C28.9411 37 37 28.9411 37 19V19C37 9.05888 28.9411 1 19 1V1Z" stroke="#D0021B" stroke-width="1.5"/>
<path fill-rule="evenodd" clip-rule="evenodd" d="M13.4357 12.0806C13.0615 11.7064 12.4548 11.7064 12.0807 12.0806C11.7065 12.4548 11.7065 13.0615 12.0807 13.4356L17.6077 18.9626L13.0106 23.5597C13.0106 23.5597 12.236 24.488 12.1514 24.7075C12.0668 24.927 12.0349 25.3902 12.3862 25.6781C12.7374 25.966 13.3142 25.966 13.6881 25.5921L18.9626 20.3176L24.2372 25.5921C24.6111 25.966 25.1878 25.966 25.5391 25.6781C25.8904 25.3902 25.8584 24.927 25.7738 24.7075C25.6892 24.488 24.9147 23.5597 24.9147 23.5597L20.3176 18.9626L25.8446 13.4356C26.2188 13.0615 26.2187 12.4548 25.8446 12.0806C25.4704 11.7064 24.8638 11.7064 24.4896 12.0806L18.9626 17.6076L13.4357 12.0806Z" fill="#E2231A"/>
</svg>
