<svg width="184" height="144" viewBox="0 0 184 144" fill="none" xmlns="http://www.w3.org/2000/svg">
<path d="M77.05 1.2721e-05C74.0573 0.313692 71.5395 3.12425 71.5556 6.13334V24.5333C49.5545 24.5333 27.4482 24.5333 5.49452 24.5333C2.50178 24.847 -0.0160163 27.6576 7.67228e-05 30.6667V136.978C0.000397905 140.189 2.92209 143.111 6.13341 143.111H177.867C181.078 143.111 184 140.189 184 136.978V30.6667C184 27.4554 181.078 24.5337 177.867 24.5333H151.289C148.049 24.4875 145.068 27.426 145.068 30.6667C145.068 33.9073 148.049 36.8458 151.289 36.8H171.733V130.844H12.2667V36.8H71.5556V40.8889H69.5112C69.2984 40.8778 69.085 40.8778 68.8723 40.8889C65.6605 41.0556 62.89 44.13 63.0573 47.3417C63.2246 50.5535 66.2994 53.3234 69.5112 53.1555H114.489C117.729 53.2014 120.71 50.2629 120.71 47.0222C120.71 43.7816 117.729 40.8431 114.489 40.8889H112.444V36.8H130.844C134.085 36.8458 137.065 33.9073 137.065 30.6667C137.065 27.426 134.085 24.4875 130.844 24.5333H112.444V6.13334C112.444 2.92203 109.522 0.000333699 106.311 1.2721e-05C96.5841 -1.59012e-05 86.7266 1.2721e-05 77.05 1.2721e-05ZM83.8223 12.2667H100.178V40.8889H83.8223V12.2667ZM47.0223 57.2444C38.062 57.2444 30.6667 64.6397 30.6667 73.6C30.6667 82.5602 38.062 89.9555 47.0223 89.9555C55.9826 89.9555 63.3778 82.5602 63.3778 73.6C63.3778 64.6397 55.9826 57.2444 47.0223 57.2444ZM47.0223 69.5111C49.3532 69.5111 51.1112 71.2691 51.1112 73.6C51.1112 75.9309 49.3532 77.6889 47.0223 77.6889C44.6914 77.6889 42.9334 75.9309 42.9334 73.6C42.9334 71.2691 44.6914 69.5111 47.0223 69.5111ZM103.628 75.6444C100.416 75.8112 97.6456 78.8855 97.8129 82.0973C97.9801 85.309 101.055 88.0789 104.267 87.9111H161.511C164.751 87.9569 167.732 85.0184 167.732 81.7778C167.732 78.5371 164.751 75.5986 161.511 75.6444C142.237 75.6444 122.854 75.6444 103.628 75.6444ZM47.0223 92C30.438 92 16.3556 104.577 16.3556 120.622C16.3559 123.834 19.2776 126.755 22.489 126.756H71.5556C74.7669 126.755 77.6886 123.834 77.6889 120.622C77.6889 104.586 63.6066 92 47.0223 92ZM103.628 94.0444C100.416 94.2111 97.6456 97.2855 97.8129 100.497C97.9801 103.709 101.055 106.479 104.267 106.311H161.511C164.751 106.357 167.732 103.418 167.732 100.178C167.732 96.9371 164.751 93.9986 161.511 94.0444C142.237 94.0444 122.854 94.0444 103.628 94.0444ZM47.0223 104.267C54.9853 104.267 61.422 108.556 64.0806 114.489H29.964C32.6304 108.558 39.0592 104.267 47.0223 104.267ZM103.628 112.444C100.416 112.611 97.6456 115.685 97.8129 118.897C97.9801 122.109 101.055 124.879 104.267 124.711H161.511C164.751 124.757 167.732 121.818 167.732 118.578C167.732 115.337 164.751 112.399 161.511 112.444C142.237 112.444 122.854 112.444 103.628 112.444Z" fill="#005931"/>
</svg>
