<svg width="20" height="20" viewBox="0 0 20 20" fill="none" xmlns="http://www.w3.org/2000/svg">
<path fill-rule="evenodd" clip-rule="evenodd" d="M10 19.1667C4.9374 19.1667 0.833344 15.0626 0.833344 10C0.833344 4.9374 4.9374 0.833344 10 0.833344C15.0626 0.833344 19.1667 4.9374 19.1667 10C19.1667 15.0626 15.0626 19.1667 10 19.1667ZM10 17.5C14.1421 17.5 17.5 14.1421 17.5 10C17.5 5.85786 14.1421 2.5 10 2.5C5.85786 2.5 2.5 5.85786 2.5 10C2.5 14.1421 5.85786 17.5 10 17.5ZM14.1667 9.16667H10.8334V5H9.16669V10.8333H14.1667V9.16667Z" fill="white"/>
</svg>
