<svg width="38" height="38" fill="none" xmlns="http://www.w3.org/2000/svg"><path fill-rule="evenodd" clip-rule="evenodd" d="M19 1C9.059 1 1 9.059 1 19s8.059 18 18 18 18-8.059 18-18S28.941 1 19 1z" fill="#D0021B" stroke="#D0021B" stroke-width="1.5"/><path fill-rule="evenodd" clip-rule="evenodd" d="M13.436 12.08a.958.958 0 1 0-1.355 1.356l5.527 5.527-4.597 4.597s-.775.928-.86 1.148c-.084.219-.116.682.235.97a.984.984 0 0 0 1.302-.086l5.275-5.274 5.274 5.274a.984.984 0 0 0 1.302.086c.351-.288.32-.751.235-.97-.085-.22-.86-1.148-.86-1.148l-4.596-4.597 5.527-5.527a.958.958 0 0 0-1.355-1.355l-5.527 5.527-5.527-5.527z" fill="#fff"/></svg>