<svg width="145" height="75" fill="none" xmlns="http://www.w3.org/2000/svg"><path d="M56.989 74.318c0 .38-.216.57-.654.57-.438 0-.66-.19-.66-.57v-9.456c0-.375.222-.565.66-.565.438 0 .654.19.654.565v9.456zM60.735 68.756a1.056 1.056 0 0 0 .375.808c.265.216.598.33.94.321.336.009.664-.106.923-.322a1.056 1.056 0 0 0 .39-.807V66.55a1.004 1.004 0 0 0-.39-.802 1.388 1.388 0 0 0-.924-.322 1.446 1.446 0 0 0-.939.322 1.017 1.017 0 0 0-.375.802v2.206zm2.639 1.953a2.95 2.95 0 0 1-1.314.306 2.818 2.818 0 0 1-1.868-.66 2.017 2.017 0 0 1-.76-1.583v-2.206a2.009 2.009 0 0 1 .76-1.583 2.817 2.817 0 0 1 1.868-.66c.68-.016 1.342.22 1.857.666a1.99 1.99 0 0 1 .77 1.583v7.767c0 .38-.216.57-.654.57-.438 0-.66-.19-.66-.57v-3.63zM68.777 68.761a.999.999 0 0 0 .38.797c.264.219.597.335.94.327.337.009.666-.108.923-.327a.993.993 0 0 0 .39-.797v-3.894c0-.38.211-.57.65-.57a.666.666 0 0 1 .564.275c.06.086.094.19.095.295v3.894a.987.987 0 0 0 .385.797 1.472 1.472 0 0 0 1.852 0 .986.986 0 0 0 .385-.797v-3.894c0-.38.222-.57.655-.57.433 0 .66.19.66.57v3.894a2.067 2.067 0 0 1-.766 1.583 2.955 2.955 0 0 1-3.693 0l-.117-.11a2.674 2.674 0 0 1-1.962.77 2.89 2.89 0 0 1-1.32-.296v3.6c0 .38-.216.57-.654.57-.438 0-.66-.19-.66-.57v-9.446c0-.375.222-.565.66-.565.438 0 .654.19.654.565l-.02 3.9zM81.932 64.846l2.058 9.303c.074.37-.1.586-.527.649-.428.063-.686-.084-.76-.454l-1.44-6.232-1.426 6.232c-.074.37-.327.528-.754.454-.428-.074-.618-.28-.528-.649l2.058-9.303v-.069a.56.56 0 0 1 .65-.401.527.527 0 0 1 .564.233c.039.05.064.11.073.174l.032.063zM91.177 64.645a.66.66 0 0 1-1.314 0v-.422a.66.66 0 0 1 1.314 0v.422zm1.979 4.38v2.639a1.296 1.296 0 0 0 1.324 1.319h.058v1.308h-.084a2.458 2.458 0 0 1-1.942-.886 2.55 2.55 0 0 1-1.973.886h-2a.527.527 0 0 1-.623-.627v-.027a.575.575 0 0 1 .65-.654h1.973a1.272 1.272 0 0 0 .934-.38 1.25 1.25 0 0 0 .38-.929v-2.638a1.25 1.25 0 0 0-.38-.934 1.346 1.346 0 0 0-1.863 0 1.246 1.246 0 0 0-.385.934.654.654 0 1 1-1.309 0 2.636 2.636 0 0 1 2.625-2.902 2.638 2.638 0 0 1 2.625 2.902" fill="#005931"/><path d="M97.784 64.645a.66.66 0 0 1-1.314 0v-.422a.66.66 0 0 1 1.314 0v.422zm0 6.998a1.283 1.283 0 0 0 1.313 1.319h.064v1.308h-.064a2.512 2.512 0 0 1-1.968-.886 2.565 2.565 0 0 1-1.979.886h-.654v-1.308h.654a1.298 1.298 0 0 0 1.32-1.314v-4.596a.66.66 0 0 1 1.314 0v4.59z" fill="#005931"/><path d="M101.773 69.025v2.639a1.276 1.276 0 0 0 .377.937 1.28 1.28 0 0 0 .937.377 1.316 1.316 0 0 0 1.314-1.314v-2.639a1.25 1.25 0 0 0-.391-.934 1.28 1.28 0 0 0-.923-.374 1.309 1.309 0 0 0-.94.374 1.285 1.285 0 0 0-.374.934zm3.936 0v2.639a2.564 2.564 0 0 1-.765 1.868 2.517 2.517 0 0 1-1.857.76 2.555 2.555 0 0 1-1.979-.882 2.464 2.464 0 0 1-1.92.876h-.064v-1.308a1.297 1.297 0 0 0 .939-.38 1.236 1.236 0 0 0 .38-.934v-2.639a2.504 2.504 0 0 1 .765-1.863 2.639 2.639 0 0 1 4.491 1.863M59.1 25.761V10.65a5.762 5.762 0 0 1 11.519 0V25.76h-11.52zM140.024.823v23.682a5.837 5.837 0 1 1-11.667 0V.823h-4.169v23.682a5.834 5.834 0 0 1-9.953 4.15 5.838 5.838 0 0 1-1.719-4.123V.823h-4.121v23.698c0 2.253-2.111 3.8-3.942 4.691a8.7 8.7 0 0 1-7.387.364c-1.942-.855-8.042-6.506-9.393-8.158-1.234-1.509-1.92-3.087-1.92-4.664v-6.728a5.894 5.894 0 0 1 5.751-5.905 5.804 5.804 0 0 1 5.926 5.831v6.986h4.121v-6.86A9.953 9.953 0 0 0 87.795.593a9.957 9.957 0 0 0-6.153 9.36v6.802c0 2.844 1.9 6.332 4.712 9.345H74.692v-15.45a9.83 9.83 0 0 0-19.655 0v19.18h15.587v12.739a5.762 5.762 0 0 1-11.52 0v-3.52h-4.067v3.525a9.83 9.83 0 0 0 19.655 0V30.289s11.156-.074 12.754-.053c.945 0 1.969-.143 2.887.174.918.317 1.8 1.32 2.686 1.878a13.377 13.377 0 0 0 7.102 2.175 14.532 14.532 0 0 0 9.952-4.428 9.954 9.954 0 0 0 16.2.496 9.949 9.949 0 0 0 11.1 3.405 9.951 9.951 0 0 0 6.772-9.43V.822h-4.121zM38.246.823H29.37V.86h-4.933v4.116c2.4 0 2.88 1.055 2.88 2.638v1.79h4.122V7.587a7.667 7.667 0 0 0-.401-2.575h2.454v-.037h1.93v-.032h2.824a5.878 5.878 0 0 1 5.836 5.836v13.456a5.879 5.879 0 0 1-5.836 5.841l-9.957-.042v4.158h9.957a9.957 9.957 0 0 0 9.952-9.957V10.78A9.963 9.963 0 0 0 38.246.823zM48.187 48.604H28.29v4.164h19.898v-4.164z" fill="#005931"/><path d="M145.005 48.604H81.674v4.164h63.331v-4.164zM9.957 0C4.464 0 0 4.327 0 9.656v6.596c0 4.396 3.166 8.654 8.923 11.99a18.226 18.226 0 0 1 5.013 3.994c1.235 1.467 1.852 2.928 1.852 4.459v6.464a5.705 5.705 0 0 1-4.812 5.572c-.337.059-.677.089-1.019.09a5.746 5.746 0 0 1-5.836-5.662v-5.99H0v5.99c0 5.324 4.464 9.656 9.957 9.656.317 0 .634-.016.95-.047a9.778 9.778 0 0 0 9.002-9.61v-6.463a10.844 10.844 0 0 0-2.744-6.924 21.582 21.582 0 0 0-6.179-4.97 18.766 18.766 0 0 1-4.944-3.995c-1.235-1.493-1.92-3.023-1.92-4.554V9.656a5.746 5.746 0 0 1 5.835-5.662 5.747 5.747 0 0 1 5.831 5.662v5.53h4.121v-5.53C19.91 4.326 15.445 0 9.957 0z" fill="#005931"/></svg>